<svg width="19" height="14" viewBox="0 0 19 14" fill="none" xmlns="http://www.w3.org/2000/svg">
<path d="M7.5982 5.42592C8.63677 5.96311 9.8544 5.96311 10.8572 5.42592L16.4797 2.5609L17.769 1.91627C17.3034 0.913519 16.2649 0.197266 15.0472 0.197266H3.44393C2.26211 0.197266 1.22355 0.913519 0.722168 1.91627L2.01142 2.5609L7.5982 5.42592Z" fill="#816868" fill-opacity="0.4"/>
<path d="M11.5376 6.71534C10.8214 7.07347 10.0335 7.25253 9.24563 7.25253C8.45775 7.25253 7.66987 7.07347 6.95362 6.71534L1.83241 4.10102L0.399902 3.38477V10.1892C0.399902 11.8366 1.76078 13.1974 3.40817 13.1974H15.0473C16.6947 13.1974 18.0555 11.8366 18.0555 10.1892V3.38477L16.623 4.10102L11.5376 6.71534Z" fill="#816868" fill-opacity="0.4"/>
</svg>
